<svg width="58" height="58" viewBox="0 0 58 58" fill="none" xmlns="http://www.w3.org/2000/svg">
<g clip-path="url(#clip0_1_120)">
<circle cx="29" cy="29" r="29" fill="#BBC8D4"/>
<path fill-rule="evenodd" clip-rule="evenodd" d="M34.5238 23.4762C34.5238 26.5281 32.0519 29 29 29C25.9481 29 23.4762 26.5281 23.4762 23.4762C23.4762 20.4243 25.9481 17.9524 29 17.9524C32.0519 17.9524 34.5238 20.4243 34.5238 23.4762ZM17.9524 37.2857C17.9524 33.6124 25.3129 31.7619 29 31.7619C32.6872 31.7619 40.0476 33.6124 40.0476 37.2857V38.6667C40.0476 39.4262 39.4262 40.0476 38.6667 40.0476H19.3333C18.5738 40.0476 17.9524 39.4262 17.9524 38.6667V37.2857Z" fill="#94A3B1"/>
</g>
<defs>
<clipPath id="clip0_1_120">
<rect width="58" height="58" fill="white"/>
</clipPath>
</defs>
</svg>
